<?xml version="1.0" standalone="no"?>
<!DOCTYPE svg PUBLIC "-//W3C//DTD SVG 20010904//EN"
 "http://www.w3.org/TR/2001/REC-SVG-20010904/DTD/svg10.dtd">
<svg version="1.0" xmlns="http://www.w3.org/2000/svg"
 width="720.000000pt" height="720.000000pt" viewBox="0 0 720.000000 720.000000"
 preserveAspectRatio="xMidYMid meet">
<metadata>
Created by potrace 1.14, written by Peter Selinger 2001-2017
</metadata>
<g transform="translate(0.000000,720.000000) scale(0.100000,-0.100000)"
fill="#000000" stroke="none">
<path d="M0 3600 l0 -3600 3600 0 3600 0 0 3600 0 3600 -3600 0 -3600 0 0
-3600z m3849 2120 c393 -50 768 -206 1075 -448 98 -77 290 -271 363 -367 242
-320 385 -673 433 -1065 13 -109 13 -371 0 -480 -86 -708 -500 -1312 -1130
-1649 l-95 -51 613 0 612 0 0 -95 0 -95 -1138 0 c-714 0 -1169 4 -1222 10
-242 29 -481 100 -694 204 -225 110 -389 228 -572 410 -244 244 -411 514 -517
832 -79 238 -107 416 -107 674 0 257 28 436 106 672 258 776 946 1342 1760
1447 99 12 415 13 513 1z"/>
<path d="M3460 5534 c-157 -18 -231 -30 -334 -56 -687 -172 -1229 -713 -1405
-1403 -43 -168 -55 -271 -54 -480 0 -266 27 -421 115 -665 139 -384 436 -750
788 -970 490 -307 1091 -380 1635 -199 657 218 1146 765 1291 1443 103 485 12
993 -256 1425 -147 238 -374 465 -610 610 -236 146 -466 233 -730 276 -92 15
-370 27 -440 19z m275 -169 c235 -49 430 -247 479 -487 30 -146 14 -267 -55
-408 -75 -152 -223 -275 -394 -326 -82 -25 -248 -25 -329 0 -171 51 -326 178
-398 326 -88 179 -87 396 2 570 35 68 111 159 173 206 154 117 335 158 522
119z m-1071 -802 c171 -42 320 -163 402 -325 45 -88 64 -173 64 -280 0 -115
-13 -175 -62 -278 -33 -69 -56 -100 -122 -165 -130 -128 -265 -185 -441 -185
-177 0 -312 57 -441 185 -127 126 -184 262 -184 440 0 414 380 709 784 608z
m2181 2 c113 -29 203 -81 290 -169 127 -127 185 -267 185 -440 0 -175 -59
-316 -185 -441 -126 -127 -266 -185 -442 -185 -175 0 -312 57 -439 184 -129
128 -185 262 -186 440 -1 286 181 528 457 607 77 23 240 24 320 4z m-1127
-717 c54 -26 125 -104 140 -156 20 -65 15 -150 -12 -207 -83 -175 -315 -211
-445 -70 -54 59 -73 107 -73 185 0 203 205 333 390 248z m-599 -582 c259 -88
431 -324 431 -593 0 -45 -5 -106 -11 -135 -15 -73 -90 -223 -140 -281 -163
-188 -436 -263 -670 -184 -102 35 -161 70 -238 143 -79 74 -132 160 -167 269
-35 108 -37 257 -4 360 74 237 275 411 515 449 69 10 211 -3 284 -28z m1331 8
c209 -61 381 -239 435 -449 20 -77 20 -232 0 -310 -57 -223 -234 -397 -461
-455 -251 -64 -524 42 -670 261 -67 101 -97 192 -102 312 -7 158 20 259 105
389 93 142 255 245 428 272 55 8 209 -3 265 -20z"/>
<path d="M3475 5167 c-119 -40 -212 -121 -265 -232 -28 -58 -34 -84 -38 -156
-9 -189 75 -332 245 -416 74 -37 81 -38 183 -38 97 0 110 2 172 32 160 75 258
225 258 392 0 174 -97 324 -257 398 -49 23 -74 28 -158 30 -63 2 -115 -2 -140
-10z"/>
<path d="M2405 4376 c-170 -42 -297 -180 -327 -355 -15 -88 -1 -169 44 -261
80 -164 268 -261 445 -231 193 33 338 181 366 374 13 92 -5 178 -58 273 -91
162 -287 245 -470 200z"/>
<path d="M4605 4380 c-219 -44 -377 -276 -336 -495 34 -187 178 -327 365 -356
279 -44 536 216 487 494 -43 245 -274 405 -516 357z"/>
<path d="M3563 3668 c-71 -34 -37 -148 43 -148 23 0 74 55 74 80 0 27 -52 80
-77 79 -10 0 -28 -5 -40 -11z"/>
<path d="M2817 3089 c-100 -23 -220 -116 -270 -207 -95 -175 -69 -368 69 -512
90 -95 198 -135 337 -128 350 18 526 431 301 705 -98 120 -280 179 -437 142z"/>
<path d="M4139 3077 c-116 -40 -203 -116 -253 -222 -101 -215 -13 -466 201
-572 67 -33 86 -38 167 -41 143 -6 247 36 343 141 195 212 123 555 -143 679
-55 26 -81 32 -158 35 -76 3 -102 0 -157 -20z"/>
</g>
</svg>
